<svg width="63" height="64" viewBox="0 0 63 64" fill="none" xmlns="http://www.w3.org/2000/svg">
<rect opacity="0.3" x="0.678467" y="0.968765" width="62.25" height="62.25" rx="31.125" fill="#4EB2F9"/>
<g clip-path="url(#clip0_68_365)">
<path d="M28.561 27.5547H35.0454V30.1485L31.8032 31.4453L28.561 30.1485V27.5547Z" fill="white"/>
<path d="M28.5608 21.0703L31.803 20.4219L34.3967 21.0703L35.6936 24.3125H27.9124L28.5608 21.0703Z" fill="white"/>
<path d="M27.9124 35.9844H35.6936V39.875L31.803 43.7656L27.9124 39.875V35.9844Z" fill="white"/>
<path d="M33.7184 26.4727C33.9702 26.4727 34.1743 26.2686 34.1743 26.0168V25.8806C34.1743 25.6288 33.9702 25.4247 33.7184 25.4247C33.4666 25.4247 33.2625 25.6288 33.2625 25.8806V26.0168C33.2625 26.2686 33.4666 26.4727 33.7184 26.4727Z" fill="#4EB2F9" stroke="#4EB2F9" stroke-width="0.333482"/>
<path d="M45.4825 30.9802C45.8866 30.384 46.123 29.6651 46.123 28.892C46.123 26.8165 44.4198 25.1315 42.3387 25.1631C40.3741 25.1931 38.7512 26.774 38.6713 28.7371C38.6376 29.5651 38.8755 30.337 39.3028 30.9711C38.7972 31.2635 38.2753 31.7111 37.8183 32.5088C36.876 32.079 35.7659 31.8451 34.8205 31.6461C34.5951 31.5987 34.3776 31.5528 34.1743 31.5069V31.1224C35.1817 30.5177 35.9233 29.6116 35.9233 28.7593C35.9233 28.6592 35.9146 28.5687 35.8987 28.4866C35.94 28.3927 35.978 28.2989 36.0127 28.2052C37.0036 28.1024 37.7154 27.5445 37.7154 26.8286L37.7189 25.8187C37.7189 25.3097 37.3127 24.9111 36.7942 24.9111H36.2874L36.2886 23.8267C36.2904 22.5938 35.7998 21.5536 34.8698 20.8184C34.0668 20.1836 32.9883 19.8269 31.833 19.8141C31.8296 19.814 31.8263 19.814 31.8229 19.8141C30.6675 19.8269 29.589 20.1836 28.7861 20.8184C27.8561 21.5536 27.3654 22.5938 27.3672 23.826V24.9111H26.8599C26.3414 24.9111 25.9352 25.3098 25.9352 25.8202L25.9387 26.8285C25.941 27.5445 26.6526 28.1015 27.6413 28.2049C27.6761 28.2989 27.7143 28.393 27.7557 28.4873C27.7398 28.5693 27.7308 28.6593 27.7308 28.7594C27.7308 29.6115 28.4724 30.5174 29.4799 31.122V31.507C29.2766 31.5529 29.0591 31.5987 28.8336 31.6461C27.8754 31.8479 26.748 32.0854 25.7977 32.5265C25.3376 31.7179 24.8116 31.2666 24.3026 30.9719C24.7304 30.3375 24.9685 29.565 24.9347 28.7366C24.8544 26.7729 23.2304 25.192 21.2653 25.1631C19.184 25.1325 17.4812 26.8171 17.4812 28.8919C17.4812 29.6653 17.7179 30.3844 18.1225 30.9807C16.9632 31.6955 16.2405 32.9622 16.2405 34.3475V36.397C16.2405 37.16 16.859 37.7786 17.622 37.7786H21.7229C21.9725 37.7786 22.1902 37.5862 22.1977 37.3367C22.2055 37.0785 21.9984 36.8667 21.7419 36.8667H17.6218C17.3625 36.8667 17.1523 36.6565 17.1523 36.3973V34.3475C17.1523 33.2294 17.7652 32.2119 18.7359 31.679C18.9182 31.841 19.1164 31.9852 19.3279 32.1095L20.8629 35.3528C20.9383 35.5121 21.0988 35.6137 21.275 35.6137H21.2769C21.4534 35.6137 21.6138 35.5112 21.6879 35.3511L23.2283 32.0248C23.3907 31.9198 23.5446 31.8027 23.6884 31.6745C24.1211 31.8931 24.584 32.2343 25.0061 32.9785C24.3595 33.4367 23.8892 34.0546 23.769 34.9166L23.1131 39.0411C23.1093 39.0646 23.1074 39.0884 23.1074 39.1123V41.1822C23.1074 41.8454 23.646 42.3846 24.3081 42.3846H27.9196C28.3695 42.3846 28.7829 42.2241 29.1051 41.9567L31.2449 44.0777C31.3951 44.2278 31.5943 44.3675 31.8143 44.3735C32.0367 44.3796 32.2626 44.2343 32.4109 44.0777L34.5106 41.9956C34.8255 42.2393 35.22 42.3846 35.6486 42.3846H39.2584C39.921 42.3846 40.4608 41.8454 40.4608 41.1822V39.1123C40.4608 39.1083 40.4586 39.0664 40.4563 39.0496L39.8859 34.9215C39.7647 34.0415 39.2792 33.4155 38.6136 32.9541C39.0312 32.2266 39.4888 31.8899 39.9169 31.6738C40.0609 31.8024 40.2151 31.9196 40.3777 32.0248L41.9181 35.3511C41.9923 35.5112 42.1527 35.6137 42.3291 35.6137H42.331C42.5072 35.6137 42.6677 35.5121 42.7431 35.3528L44.2784 32.1088C44.4895 31.9847 44.6874 31.8405 44.8693 31.6786C45.8404 32.2114 46.4536 33.2291 46.4536 34.3475V36.397C46.4536 36.656 46.2422 36.8667 45.9825 36.8667H41.8814C41.6317 36.8667 41.414 37.059 41.4066 37.3086C41.3988 37.5668 41.6058 37.7786 41.8623 37.7786H45.9825C46.745 37.7786 47.3655 37.1588 47.3655 36.397V34.3475C47.3655 32.9618 46.6423 31.6948 45.4825 30.9802ZM36.2869 26.7511V25.8229H36.7943C36.7999 25.8229 36.8041 25.8238 36.807 25.8247L36.8036 26.8269C36.8036 26.9572 36.5979 27.1322 36.256 27.2319C36.2765 27.0706 36.2869 26.9102 36.2869 26.7511ZM26.8506 26.8254L26.8472 25.8247C26.85 25.8238 26.8543 25.8229 26.8599 25.8229H27.3672V26.7511C27.3672 26.91 27.3776 27.0702 27.3981 27.2313C27.0567 27.1311 26.851 26.9559 26.8506 26.8254ZM21.2705 34.0824L20.5508 32.5618C20.7648 32.6001 20.9847 32.6212 21.2095 32.6212C21.4754 32.6212 21.7346 32.5927 21.985 32.5395L21.2705 34.0824ZM24.0144 29.1498C23.8942 30.4948 22.8115 31.578 21.4666 31.6979C19.7117 31.8544 18.2477 30.3896 18.4046 28.6341C18.5248 27.2891 19.6075 26.2059 20.9525 26.086C22.7073 25.9295 24.1713 27.3943 24.0144 29.1498ZM28.2792 23.8253C28.2761 21.725 30.1156 20.7468 31.828 20.7259C33.5403 20.7468 35.3799 21.725 35.3768 23.8254L35.3762 24.3014C34.5099 23.7219 33.2372 23.3769 31.836 23.3769C31.8306 23.3769 31.8252 23.3769 31.8198 23.3769C30.4185 23.3769 29.1455 23.7217 28.2791 24.3008V23.8253H28.2792ZM28.4383 27.7176C28.4293 27.6897 28.4212 27.6615 28.4126 27.6335C28.3246 27.3327 28.2792 27.0375 28.2792 26.7511V25.513C28.8505 24.7749 30.2484 24.2872 31.8275 24.2888C31.8303 24.2887 31.8332 24.2888 31.8361 24.2888C33.4094 24.2888 34.8047 24.7762 35.3751 25.513V26.7511C35.3751 27.0641 35.3211 27.3876 35.216 27.7175C35.0742 27.6539 34.9275 27.6018 34.782 27.5472C33.5254 27.0679 32.67 26.8709 31.8298 26.8674C31.8286 26.8674 31.8274 26.8674 31.8261 26.8674C30.9847 26.8709 30.1289 27.0679 28.8733 27.5468C28.7274 27.6015 28.5804 27.6539 28.4383 27.7176ZM28.6428 28.7592C28.6428 28.7583 28.6428 28.7573 28.6428 28.7564C28.643 28.6754 28.6901 28.6021 28.7626 28.5661C28.9242 28.4857 29.1972 28.3992 29.1972 28.3992C30.3427 27.9623 31.1051 27.7826 31.828 27.7793C32.5497 27.7826 33.3116 27.9623 34.4583 28.3997C34.5954 28.4512 34.7363 28.4986 34.864 28.5712C34.9378 28.6131 35.0115 28.6668 35.0115 28.7592C35.0115 29.5425 33.4389 30.9021 31.828 30.9148C30.2162 30.9021 28.6428 29.5425 28.6428 28.7592ZM33.2624 31.5562V31.8671C33.2624 32.2719 33.127 32.5892 32.8601 32.8101C32.6148 33.0132 32.2703 33.1249 31.8902 33.1249C31.2878 33.1249 30.3918 32.79 30.3918 31.8671V31.5558C30.8582 31.7242 31.3472 31.8233 31.8249 31.8266H31.828C31.828 31.8266 31.83 31.8266 31.8311 31.8266C32.3082 31.8233 32.7965 31.7243 33.2624 31.5562ZM29.0215 32.5384C29.2039 32.5 29.3811 32.4627 29.5515 32.4252C29.8304 33.4758 30.887 34.0368 31.8902 34.0368C32.4821 34.0368 33.0331 33.8507 33.4415 33.5125C33.7824 33.2305 34.0083 32.861 34.1108 32.4269C34.2788 32.4638 34.4532 32.5006 34.6327 32.5383C34.7624 32.5656 34.8944 32.5935 35.0278 32.6221L32.6955 35.7303C32.3789 35.8813 32.0836 36.0777 31.8274 36.3078C31.5708 36.0777 31.2754 35.8813 30.9588 35.7304L28.6265 32.6221C28.7598 32.5935 28.8918 32.5657 29.0215 32.5384ZM24.6702 35.0552C24.6707 35.0521 24.6712 35.049 24.6716 35.0458C24.8433 33.8 26.2055 33.2231 27.656 32.8481L29.573 35.4029C28.9321 35.4046 28.2984 35.6295 27.7829 36.1631C27.1252 36.8452 26.8303 37.7631 26.8984 38.6561H24.0976L24.6702 35.0552ZM28.4516 41.3091C28.2996 41.4124 28.1166 41.4726 27.9196 41.4726H24.3081C24.1488 41.4726 24.0193 41.3425 24.0193 41.182V39.568H27.9196C27.9871 39.568 28.0528 39.5753 28.116 39.5887C28.519 39.6738 28.8291 40.0154 28.8662 40.4355C28.8686 40.4635 28.8698 40.4914 28.8698 40.52C28.8698 40.8483 28.7039 41.1376 28.4516 41.3091ZM33.7849 40.4991C33.7818 40.7742 33.8387 41.0368 33.9434 41.2732L31.8279 43.3717L29.6485 41.2118C29.7343 40.9978 29.7817 40.7644 29.7817 40.52C29.7817 39.492 28.9464 38.6561 27.9196 38.6561H27.8108C27.7403 37.9935 27.95 37.3041 28.4388 36.7965C29.2163 35.9917 30.454 36.2968 31.2255 36.9935C31.2777 37.0397 31.3191 37.0798 31.3537 37.112C31.4808 37.2324 31.6115 37.3564 31.8279 37.3564C32.0431 37.3564 32.1726 37.233 32.2984 37.1139C32.3331 37.081 32.3756 37.0409 32.4297 36.9923C33.2006 36.2968 34.4383 35.9917 35.2152 36.7959C35.7045 37.3035 35.9143 37.9929 35.8438 38.6561H35.687C34.6594 38.6561 33.7961 39.4716 33.7849 40.4991ZM39.549 41.182C39.549 41.3418 39.4182 41.4726 39.2584 41.4726H35.6486C35.4735 41.4726 35.31 41.4252 35.169 41.3425C34.8881 41.1784 34.6991 40.8738 34.6966 40.5261V40.52C34.6966 40.0288 35.0693 39.6239 35.5471 39.5735C35.5805 39.5698 35.6146 39.568 35.6486 39.568H39.549V41.182ZM38.9826 35.046L39.4814 38.6562H36.7562C36.8237 37.7632 36.5289 36.8452 35.8711 36.1632C35.3558 35.6294 34.722 35.4046 34.0812 35.4029L35.9982 32.8482C37.4488 33.2231 38.811 33.8 38.9826 35.046ZM42.3354 34.0824L41.621 32.5395C41.8712 32.5927 42.1306 32.6212 42.3965 32.6212C42.6213 32.6212 42.8412 32.6001 43.0552 32.5617L42.3354 34.0824ZM42.3964 31.7094C40.7723 31.7094 39.4648 30.327 39.588 28.6767C39.6908 27.2998 40.8012 26.1874 42.1781 26.0829C43.8283 25.9576 45.2112 27.2662 45.2112 28.892C45.2112 30.4455 43.9485 31.7094 42.3964 31.7094Z" fill="#4EB2F9" stroke="#4EB2F9" stroke-width="0.333482"/>
<path d="M29.9357 26.4727C30.1875 26.4727 30.3916 26.2686 30.3916 26.0168V25.8806C30.3916 25.6288 30.1875 25.4247 29.9357 25.4247C29.6839 25.4247 29.4797 25.6288 29.4797 25.8806V26.0168C29.4797 26.2686 29.6839 26.4727 29.9357 26.4727Z" fill="#4EB2F9" stroke="#4EB2F9" stroke-width="0.333482"/>
</g>
<defs>
<clipPath id="clip0_68_365">
<rect width="31.125" height="31.125" fill="white" transform="translate(16.2407 16.5313)"/>
</clipPath>
</defs>
</svg>
