<svg width="689" height="549" viewBox="0 0 689 549" fill="none" xmlns="http://www.w3.org/2000/svg">
<rect x="144" width="451.62" height="547.952" fill="#08763A"/>
<path opacity="0.44" fill-rule="evenodd" clip-rule="evenodd" d="M52.0604 389.425C51.4746 390.01 51.4746 390.96 52.0604 391.546L58.4244 397.91C59.0102 398.496 59.9599 398.496 60.5457 397.91L66.9097 391.546C67.4955 390.96 67.4955 390.01 66.9097 389.425L60.5457 383.061C59.9599 382.475 59.0102 382.475 58.4244 383.061L52.0604 389.425ZM76.0604 389.425C75.4746 390.01 75.4746 390.96 76.0604 391.546L82.4244 397.91C83.0102 398.496 83.9599 398.496 84.5457 397.91L90.9097 391.546C91.4955 390.96 91.4955 390.01 90.9097 389.425L84.5457 383.061C83.9599 382.475 83.0102 382.475 82.4244 383.061L76.0604 389.425Z" fill="white"/>
<path fill-rule="evenodd" clip-rule="evenodd" d="M64.0604 377.425C63.4746 378.01 63.4746 378.96 64.0604 379.546L70.4244 385.91C71.0102 386.496 71.9599 386.496 72.5457 385.91L78.9097 379.546C79.4955 378.96 79.4955 378.01 78.9097 377.425L72.5457 371.061C71.9599 370.475 71.0102 370.475 70.4244 371.061L64.0604 377.425ZM64.0604 401.425C63.4746 402.01 63.4746 402.96 64.0604 403.546L70.4244 409.91C71.0102 410.496 71.9599 410.496 72.5457 409.91L78.9097 403.546C79.4955 402.96 79.4955 402.01 78.9097 401.425L72.5457 395.061C71.9599 394.475 71.0102 394.475 70.4244 395.061L64.0604 401.425Z" fill="white"/>
<path fill-rule="evenodd" clip-rule="evenodd" d="M324.99 233.901C328.358 237.071 328.519 242.372 325.349 245.74L297.251 275.594L325.349 305.448C328.519 308.816 328.358 314.116 324.99 317.286C321.622 320.456 316.321 320.296 313.151 316.927L279.651 281.334C276.616 278.109 276.616 273.079 279.651 269.854L313.151 234.26C316.321 230.892 321.622 230.731 324.99 233.901ZM414.01 233.901C410.642 237.071 410.481 242.372 413.651 245.74L441.749 275.594L413.651 305.448C410.481 308.816 410.642 314.116 414.01 317.286C417.378 320.456 422.678 320.296 425.849 316.927L459.349 281.334C462.384 278.109 462.384 273.079 459.349 269.854L425.849 234.26C422.678 230.892 417.378 230.731 414.01 233.901Z" fill="white"/>
<rect opacity="0.44" x="378.752" y="206.615" width="16.75" height="134" rx="4.1875" transform="rotate(15 378.752 206.615)" fill="white"/>
<rect x="143.981" width="119.12" height="122.228" fill="#009F49"/>
<rect x="493.054" width="102.547" height="40.3972" fill="#22542D"/>
<rect x="455.227" y="104.082" width="37.3256" height="37.3256" stroke="white"/>
<rect x="493.055" y="103.582" width="38.3256" height="38.3256" fill="#2CB36A"/>
<rect x="531.379" y="103.582" width="38.3256" height="38.3256" fill="#064A25"/>
<rect x="493.054" y="141.906" width="38.3256" height="38.3256" fill="white"/>
<rect x="595.695" y="105.504" width="27.4352" height="168.352" fill="#224254"/>
<rect x="82.8652" y="61.1172" width="61.1138" height="61.1138" fill="#2CB36A"/>
<rect x="49.7188" y="509.625" width="36.2539" height="38.3256" fill="#EFE6E8"/>
<rect y="319" width="143.98" height="142.944" fill="#009F49" fill-opacity="0.23"/>
<rect x="595" y="273" width="93.2244" height="93.2244" fill="#2CB36A"/>
<rect x="565.766" y="488.844" width="29.9293" height="29.9293" fill="#3D8050"/>
<rect x="505.906" y="488.844" width="29.9293" height="29.9293" fill="#2CB36A"/>
<rect x="535.836" y="518.774" width="29.9293" height="29.9293" fill="#224254"/>
<rect x="535.836" y="458.914" width="29.9293" height="29.9293" fill="white"/>
<rect x="493.054" y="40.3977" width="102.547" height="63.1854" fill="#C5FFDF"/>
</svg>
