<svg width="63" height="63" viewBox="0 0 63 63" fill="none" xmlns="http://www.w3.org/2000/svg">
<rect opacity="0.3" x="0.678467" y="0.678589" width="62.25" height="62.25" rx="31.125" fill="#FFB201"/>
<ellipse cx="35.0454" cy="32.452" rx="8.42969" ry="8.42969" fill="white"/>
<path d="M35.6324 31.5862L35.2394 31.1932L34.0192 29.9729C33.9395 29.8933 33.8103 29.8932 33.7305 29.973C33.6509 30.0526 33.6508 30.1818 33.7306 30.2615L35.4881 32.0191C35.5678 32.0988 35.697 32.0988 35.7767 32.0191L38.2198 29.576L38.2198 29.576C38.2994 29.4964 38.2995 29.3672 38.2198 29.2874L35.6324 31.5862ZM35.6324 31.5862L36.0254 31.1932L37.9311 29.2875C37.9311 29.2875 37.9311 29.2875 37.9311 29.2875C38.0109 29.2078 38.1401 29.2078 38.2198 29.2874L35.6324 31.5862Z" fill="#FFB201" stroke="#FFB201" stroke-width="1.11161"/>
<path d="M30.3166 24.9798L30.5054 24.9866L30.6593 24.8769C36.2879 20.8636 44.2162 24.8762 44.2162 31.8748C44.2162 36.5831 40.4044 40.4587 35.6323 40.4588C33.8283 40.4588 32.1017 39.9019 30.6593 38.8729L30.5051 38.7628L30.3157 38.7699C30.319 38.7698 30.2737 38.7699 30.1802 38.77C30.1049 38.77 29.9985 38.7702 29.8613 38.7703L28.6463 38.7707C27.6443 38.771 26.3128 38.7711 24.98 38.7711C22.5837 38.7712 20.1835 38.771 19.6869 38.771L19.5944 38.771C19.4817 38.771 19.3903 38.6796 19.3903 38.5669C19.3903 38.4542 19.4817 38.3628 19.5944 38.3628H28.6795H29.8865L29.1018 37.4457C27.9427 36.091 27.2256 34.3941 27.0779 32.5894L27.0361 32.0789H26.524H22.1147C22.002 32.0789 21.9106 31.9875 21.9106 31.8748C21.9106 31.7621 22.002 31.6708 22.1147 31.6708H26.524H27.0362L27.078 31.1603C27.226 29.3528 27.9449 27.6567 29.1018 26.3039L29.886 25.3869H28.6794H24.9316C24.8189 25.3869 24.7275 25.2955 24.7275 25.1828C24.7275 25.0701 24.8189 24.9787 24.9316 24.9787H30.2945C30.2995 24.979 30.3073 24.9795 30.3166 24.9798ZM27.4566 31.8748C27.4566 36.4314 31.1514 40.0505 35.6323 40.0505C40.1664 40.0505 43.808 36.3719 43.808 31.8748C43.808 24.6816 35.1783 21.0291 30.0045 25.9447C28.3627 27.5039 27.4566 29.6124 27.4566 31.8748Z" fill="#FFB201" stroke="#FFB201" stroke-width="1.11161"/>
<path d="M35.9212 26.9187C35.9212 27.0782 35.7919 27.2075 35.6324 27.2075C35.4729 27.2075 35.3436 27.0782 35.3436 26.9187C35.3436 26.7592 35.4729 26.6299 35.6324 26.6299C35.7919 26.6299 35.9212 26.7592 35.9212 26.9187Z" fill="#FFB201" stroke="#FFB201" stroke-width="1.11161"/>
<path d="M35.6324 37.6754C36.0988 37.6754 36.4769 37.2973 36.4769 36.8309C36.4769 36.3644 36.0988 35.9863 35.6324 35.9863C35.166 35.9863 34.7878 36.3644 34.7878 36.8309C34.7878 37.2973 35.166 37.6754 35.6324 37.6754Z" fill="#FFB201"/>
<path d="M40.5601 31.0021C40.0937 31.0021 39.7156 31.3802 39.7156 31.8467C39.7156 32.3131 40.0937 32.6912 40.5601 32.6912C41.0266 32.6912 41.4047 32.3131 41.4047 31.8467C41.4047 31.3802 41.0265 31.0021 40.5601 31.0021Z" fill="#FFB201"/>
<path d="M30.7798 32.6812C31.2402 32.6065 31.5529 32.1728 31.4783 31.7125C31.4036 31.2521 30.9699 30.9394 30.5096 31.014C30.0492 31.0887 29.7365 31.5224 29.8112 31.9827C29.8858 32.4431 30.3195 32.7558 30.7798 32.6812Z" fill="#FFB201"/>
</svg>
