<svg width="63" height="63" viewBox="0 0 63 63" fill="none" xmlns="http://www.w3.org/2000/svg">
<rect opacity="0.3" x="0.678467" y="0.0982056" width="62.25" height="62.25" rx="31.125" fill="#4640DD"/>
<path d="M26.6157 20.8483H38.2876L35.6938 25.3873L38.2876 29.9264H26.6157V20.8483Z" fill="white"/>
<path d="M41.7205 38.8519V36.1492C41.7205 35.5352 41.2228 35.0375 40.6089 35.0375H27.226V30.4603H38.0174C38.9052 30.4603 39.4348 29.4708 38.9423 28.7321L36.5344 25.1203L38.9423 21.5084C39.4348 20.7697 38.9052 19.7802 38.0174 19.7802H27.226V19.0173C27.226 18.596 26.8845 18.2545 26.4631 18.2545C26.0418 18.2545 25.7003 18.596 25.7003 19.0173V19.7802V30.4603V35.0375H22.9976C22.3836 35.0375 21.8859 35.5352 21.8859 36.1492V38.8519H19.9461C19.3322 38.8519 18.8345 39.3496 18.8345 39.9635V43.0803C18.8345 43.6943 19.3322 44.192 19.9461 44.192H43.6604C44.2743 44.192 44.772 43.6943 44.772 43.0803V39.9635C44.772 39.3496 44.2743 38.8519 43.6604 38.8519H41.7205ZM37.2436 21.3059L34.7007 25.1203L37.2436 28.9346H27.226V21.3059H37.2436ZM23.4117 36.5633H40.1948V38.8519H23.4117V36.5633ZM43.2462 42.6662H20.3602V40.3776H21.8859H41.7205H43.2462V42.6662Z" fill="#4640DD"/>
</svg>
