<svg width="63" height="63" viewBox="0 0 63 63" fill="none" xmlns="http://www.w3.org/2000/svg">
<rect opacity="0.3" x="0.678467" y="0.388428" width="62.25" height="62.25" rx="31.125" fill="#1EBCB4"/>
<rect x="20.1311" y="28.9197" width="2.59375" height="7.78125" fill="white"/>
<ellipse cx="31.8032" cy="41.8884" rx="1.29687" ry="1.29687" fill="white"/>
<rect x="40.8816" y="28.9197" width="2.59375" height="7.78125" fill="white"/>
<path d="M44.0121 27.4978H41.4867C41.0978 22.4958 36.9033 18.5447 31.8032 18.5447C26.7032 18.5447 22.5087 22.4958 22.1198 27.4978H19.5944C19.1747 27.4978 18.8345 27.8381 18.8345 28.2577V36.397C18.8345 36.8166 19.1747 37.1569 19.5944 37.1569H22.8501C23.2697 37.1569 23.61 36.8166 23.61 36.397V28.2577C23.61 23.7399 27.2854 20.0645 31.8032 20.0645C36.321 20.0645 39.9965 23.7399 39.9965 28.2577V36.397C39.9965 39.1195 37.7815 41.3346 35.0589 41.3346H34.0663C33.7481 40.3895 32.8541 39.7067 31.8032 39.7067C30.4866 39.7067 29.4155 40.7779 29.4155 42.0945C29.4155 43.411 30.4866 44.4822 31.8032 44.4822C32.8541 44.4822 33.7481 43.7994 34.0663 42.8543H35.0589C38.3624 42.8543 41.094 40.3606 41.4713 37.1569H44.0121C44.4317 37.1569 44.772 36.8166 44.772 36.397V28.2577C44.772 27.8381 44.4317 27.4978 44.0121 27.4978ZM22.0902 35.6371H20.3542V29.0176H22.0902V35.6371ZM31.8032 42.9624C31.3246 42.9624 30.9352 42.573 30.9352 42.0945C30.9352 41.6159 31.3246 41.2265 31.8032 41.2265C32.2818 41.2265 32.6712 41.6159 32.6712 42.0945C32.6712 42.573 32.2818 42.9624 31.8032 42.9624ZM43.2522 35.6371H41.5163V29.0176H43.2522V35.6371Z" fill="#1EBCB4"/>
<path d="M37.3848 27.5557C37.1009 27.4381 36.7741 27.503 36.5567 27.7203C36.5567 27.7203 34.1842 30.092 33.0593 31.2161C32.5541 31.724 32.2644 32.4258 32.2644 33.1413C32.2644 33.5609 32.6046 33.9012 33.0243 33.9012H36.3341V35.583C36.3341 36.0027 36.6743 36.3429 37.0939 36.3429C37.5136 36.3429 37.8538 36.0027 37.8538 35.583V33.9012H37.9078C38.3275 33.9012 38.6677 33.5609 38.6677 33.1413C38.6677 32.7216 38.3275 32.3814 37.9078 32.3814H37.8538V28.2577C37.8538 27.9504 37.6687 27.6734 37.3848 27.5557ZM36.3341 32.3814H34.053C34.0788 32.3494 34.1063 32.3187 34.1353 32.2894C34.7045 31.7207 35.5946 30.831 36.3341 30.0918V32.3814Z" fill="#1EBCB4"/>
<path d="M30.9355 35.583C30.9355 35.1633 30.5953 34.8231 30.1756 34.8231H27.1347C27.1605 34.7911 27.188 34.7604 27.217 34.7312C28.3403 33.6087 30.7129 31.2369 30.7129 31.2369C30.8554 31.0944 30.9356 30.901 30.9356 30.6995V30.2925C30.9356 28.7515 29.6819 27.4978 28.1409 27.4978C26.5846 27.4978 25.3462 28.7588 25.3462 30.2917V30.2925C25.3462 30.7121 25.6864 31.052 26.1061 31.052C26.5257 31.052 26.866 30.7113 26.866 30.2917C26.866 29.5951 27.4268 29.0176 28.1409 29.0176C28.8439 29.0176 29.4158 29.5895 29.4158 30.2925V30.3846C28.7996 31.0006 27.0569 32.7426 26.1411 33.6579C25.6359 34.1658 25.3462 34.8675 25.3462 35.583C25.3462 36.0027 25.6864 36.3429 26.1061 36.3429H30.1757C30.5953 36.3429 30.9355 36.0027 30.9355 35.583Z" fill="#1EBCB4"/>
</svg>
